<?xml version="1.0" standalone="no"?><!DOCTYPE svg PUBLIC "-//W3C//DTD SVG 1.1//EN" "http://www.w3.org/Graphics/SVG/1.1/DTD/svg11.dtd"><svg t="1721487664862" class="icon" viewBox="0 0 1024 1024" version="1.1" xmlns="http://www.w3.org/2000/svg" p-id="5419" xmlns:xlink="http://www.w3.org/1999/xlink" width="48" height="48"><path d="M336.611556 294.058667a30.037333 30.037333 0 0 0-43.975112 0L66.332444 518.030222a31.288889 31.288889 0 0 0 0 44.828445l219.989334 223.971555a30.037333 30.037333 0 0 0 44.032 0 31.288889 31.288889 0 0 0 0-44.771555L135.395556 543.630222l201.159111-204.8a55.580444 55.580444 0 0 0 0-44.771555zM600.291556 284.444444a37.205333 37.205333 0 0 0-35.896889 26.168889l-107.747556 444.871111c-5.973333 19.626667 6.030222 32.711111 23.950222 39.253334 17.976889 6.542222 29.923556-6.542222 35.896889-26.168889l107.747556-444.871111c5.973333-13.084444-6.030222-32.711111-23.950222-39.253334z m419.555555 230.741334l-220.444444-221.297778a30.378667 30.378667 0 0 0-44.088889 0 30.606222 30.606222 0 0 0 0 44.259556L950.556444 540.444444l-201.557333 202.296889a30.606222 30.606222 0 0 0 0 44.202667 30.378667 30.378667 0 0 0 44.088889 0l220.501333-221.240889c12.572444-12.629333 12.572444-37.888 6.257778-50.517333z" fill="#515151" p-id="5420" data-spm-anchor-id="a313x.search_index.0.i0.e68d3a81iQvCLi" class="selected"></path></svg>