<?xml version="1.0" standalone="no"?><!DOCTYPE svg PUBLIC "-//W3C//DTD SVG 1.1//EN" "http://www.w3.org/Graphics/SVG/1.1/DTD/svg11.dtd"><svg t="1721124518568" class="icon" viewBox="0 0 1024 1024" version="1.1" xmlns="http://www.w3.org/2000/svg" p-id="14607" xmlns:xlink="http://www.w3.org/1999/xlink" width="48" height="48"><path d="M512 64c126.677333 3.328 232.192 47.146667 316.501333 131.498667C912.853333 279.808 956.672 385.28 960 512c-3.328 126.677333-47.146667 232.192-131.498667 316.501333C744.192 912.853333 638.72 956.672 512 960c-126.677333-3.328-232.192-47.146667-316.501333-131.498667C111.146667 744.192 67.328 638.72 64 512c3.328-126.677333 47.146667-232.192 131.498667-316.501333C279.808 111.146667 385.28 67.328 512 64z m66.986667 275.029333c17.365333 0 31.701333-5.205333 43.008-15.530666 11.349333-10.325333 17.024-24.149333 17.024-41.472 0-17.365333-5.674667-31.189333-17.024-41.514667-11.306667-10.325333-25.472-15.488-42.453334-15.488-17.024 0-31.189333 5.162667-42.538666 15.488-11.306667 10.325333-16.981333 24.149333-16.981334 41.514667 0 17.322667 5.674667 31.146667 16.981334 41.472 11.349333 10.325333 25.344 15.530667 42.026666 15.530666z m12.032 359.978667c0-4.010667 0.341333-9.344 0.981333-16a91.264 91.264 0 0 0 0-18.986667l-52.992 60.970667c-5.333333 5.973333-10.837333 10.666667-16.512 13.994667-5.674667 3.370667-10.496 4.352-14.506667 3.029333-5.973333-2.688-8.661333-7.338667-7.978666-13.994667l87.978666-276.992c3.328-18.688 0.341333-34.688-8.96-48.042666-9.344-13.312-24.32-21.333333-45.013333-23.978667-23.338667 0.682667-48.853333 10.496-76.501333 29.525333a288.426667 288.426667 0 0 0-72.533334 72.490667v15.018667a91.178667 91.178667 0 0 0 0 18.986666l52.992-61.013333c5.333333-5.973333 10.837333-10.666667 16.512-13.994667 5.674667-3.328 10.197333-4.352 13.525334-2.986666 6.656 3.328 9.002667 8.661333 6.997333 16l-87.04 276.010666c-4.650667 16.64-2.304 31.488 7.04 44.501334 9.344 13.013333 25.685333 21.845333 48.981333 26.453333 33.365333-0.64 61.354667-10.282667 84.010667-28.970667 22.656-18.645333 43.648-42.666667 63.018667-71.978666v-0.042667z" fill="#177DDC" fill-opacity=".96" p-id="14608" data-spm-anchor-id="a313x.search_index.0.i17.58d83a81DWyB3b" class="selected"></path></svg>