<?xml version="1.0" standalone="no"?><!DOCTYPE svg PUBLIC "-//W3C//DTD SVG 1.1//EN" "http://www.w3.org/Graphics/SVG/1.1/DTD/svg11.dtd"><svg t="1686574858015" class="icon" viewBox="0 0 1024 1024" version="1.1" xmlns="http://www.w3.org/2000/svg" p-id="9129" xmlns:xlink="http://www.w3.org/1999/xlink" width="64" height="64"><path d="M151.467 204.373a34.133 34.133 0 1 1 48.213-48.213l331.947 331.947a34.133 34.133 0 0 1 0 48.213L199.68 867.84a34.133 34.133 0 1 1-48.213-48.213L459.093 512z m341.333 0a34.133 34.133 0 0 1 48.213-48.213L872.96 488.107a34.133 34.133 0 0 1 0 48.213L541.013 868.267a34.133 34.133 0 0 1-48.213-48.214L800.427 512z" fill="#2c2c2c" p-id="9130"></path></svg>