<?xml version="1.0" standalone="no"?><!DOCTYPE svg PUBLIC "-//W3C//DTD SVG 1.1//EN" "http://www.w3.org/Graphics/SVG/1.1/DTD/svg11.dtd"><svg t="1687154477786" class="icon" viewBox="0 0 1024 1024" version="1.1" xmlns="http://www.w3.org/2000/svg" p-id="13217" xmlns:xlink="http://www.w3.org/1999/xlink" width="64" height="64"><path d="M858.215186 365.296777c-19.841907-45.544289-46.667879-85.226057-80.476893-119.03507-33.813107-33.813107-73.629951-60.639079-119.455649-80.476893-45.828768-19.838837-94.727455-29.759791-146.704247-29.759791-51.972699 0-100.732216 9.920954-146.280598 29.759791-45.545312 19.837814-85.226057 46.663786-119.03507 80.476893-33.813107 33.809013-60.639079 73.490781-80.477916 119.03507-19.838837 45.549406-29.759791 94.308923-29.759791 146.281621 0 51.976792 9.920954 100.875478 29.759791 146.704247 19.838837 45.824675 46.664809 85.641519 80.477916 119.454626 33.809013 33.809013 73.489758 60.634985 119.03507 80.477916 45.548382 19.838837 94.307899 29.759791 146.280598 29.759791 51.976792 0 100.875478-9.920954 146.704247-29.759791 45.825698-19.84293 85.642542-46.668902 119.455649-80.477916 33.809013-33.813107 60.634985-73.629951 80.476893-119.454626 19.838837-45.828768 29.759791-94.727455 29.759791-146.704247C887.974977 459.605699 878.054023 410.846182 858.215186 365.296777zM687.075411 424.396803 477.3222 636.43301c-0.052189 0.052189-0.159636 0.079818-0.211824 0.156566-0.075725 0.051165-0.075725 0.159636-0.156566 0.211824-1.678222 1.622964-3.745301 2.617617-5.683443 3.717671-0.971118 0.551562-1.75497 1.390673-2.778276 1.782599-3.14155 1.254573-6.471388 1.910513-9.797134 1.910513-3.354398 0-6.731308-0.655939-9.901511-1.962701-1.047866-0.448208-1.886977-1.335415-2.882654-1.886977-1.938142-1.099031-3.957125-2.070148-5.631254-3.721765-0.052189-0.051165-0.080841-0.155543-0.132006-0.207731-0.052189-0.079818-0.156566-0.079818-0.207731-0.155543L336.777233 530.257829c-10.088776-10.373255-9.853415-26.953885 0.523933-37.043684 10.372232-10.057053 26.929326-9.872858 37.038568 0.523933l84.538395 86.869486 190.974519-193.041598c10.161431-10.296507 26.770713-10.376325 37.039591-0.211824C697.136557 397.547295 697.240935 414.127925 687.075411 424.396803z" fill="#1afa29" p-id="13218" data-spm-anchor-id="a313x.7781069.0.i18" class="selected"></path></svg>