<svg version="1.2" baseProfile="tiny-ps" xmlns="http://www.w3.org/2000/svg" viewBox="0 0 1024 1024" width="64" height="64">
	<title>fish-svg</title>
	<style>
		tspan { white-space:pre }
		.shp0 { fill: #ff8931 } 
		.shp1 { fill: #000000 } 
		.shp2 { fill: #ffc239 } 
		.shp3 { fill: #ffffff } 
		.shp4 { fill: #ffbc34 } 
	</style>
	<path id="Layer" class="shp0" d="M438.36 859.4C413.55 871.02 386.05 870.54 364.71 858.22C336.85 842.12 328.76 812.34 326.92 790.23C324.72 764.54 331.73 737.08 337.81 712.81C339.65 705.65 341.35 698.9 342.81 692.36C344.54 684.48 341.61 674.92 335.25 667.96C330.95 663.24 325.83 660.56 321.74 661.04C315.46 661.77 310.37 663.16 306.11 665.15C292.8 671.39 285.32 685.6 270.55 713.72C264.06 726.03 256.01 741.39 245.62 759.51C242.52 764.93 238.04 769.02 232.24 771.74C207.7 783.23 163.45 765.85 135.51 733.77C107.49 701.51 103.8 664.15 125.32 631.11C135.42 615.66 151.45 602.97 174.36 592.24C199.9 580.28 228.49 573.41 251.53 567.92C255.99 566.83 260.27 565.82 264.14 564.89C267.11 564.16 269.95 563.16 272.4 562.02C282.18 557.44 287.15 550.14 286.16 541.88C285.16 533.63 277.08 522.73 257.94 519.1C188.8 506.09 177.19 472.11 175.4 458.15C172.25 433.02 189.34 408.45 219.95 394.12C311.69 351.16 362.27 410.84 395.7 450.4C404.17 460.46 411.51 469.06 418.16 474.55C438.44 491.45 480.39 516.42 509.46 502.81C517.52 499.03 524.31 492.32 529.48 482.83L535.86 471.23L559.23 521.13L555.7 524.44C501.12 576.5 477.45 604.47 468.44 627.68C459.3 651.07 464.56 670.57 473.94 705.93C477.91 720.53 482.22 737.06 486.58 757.21C491.49 780.2 488.82 802.32 478.9 820.99C470.2 837.54 455.75 851.26 438.36 859.4L438.36 859.4Z" />
	<path id="Layer" fill-rule="evenodd" class="shp1" d="M234.08 403.45C344.85 354.74 389.24 457.68 423.23 487.53C445.59 507.08 488.85 533.17 520.98 519.04C529.95 515.1 538.09 508.02 544.51 496.79L559.45 530.75C428.36 650 460.45 648.45 482.85 767.95C491.61 814.46 467.26 847.78 436.04 861.5C394.12 879.94 339.74 863.1 335.65 795.42C333.69 763.62 346.5 729.15 353.67 700C358.42 680.76 341.43 658.51 326.23 659.96C319.21 660.64 313.46 661.97 308.42 664.18C286.18 673.96 278.64 700.54 242.63 759.75C240.04 764.05 236.44 767.06 231.96 769.03C191.31 786.9 85.39 710.47 136.72 635.9C147.52 620.23 164.64 608.99 183.78 600.57C214.08 587.25 249.44 580.98 272.99 575.65C276.57 574.85 279.71 573.79 282.55 572.54C312.21 559.5 304.8 524.52 267.8 516.65C171.16 496.11 174.49 429.65 234.08 403.45ZM190.63 420.15C181.32 432.77 177.13 446.84 178.63 460.93C180.26 476.82 188.86 491.39 203.49 503.31C218.39 515.33 239.04 524.27 264.96 529.81C279.54 532.9 286.76 540.87 287.42 547.35C287.93 552.48 284.24 557.27 277.19 560.37C275.09 561.29 272.68 562.03 270.01 562.66C266.11 563.49 261.86 564.49 257.33 565.39C233.89 570.45 204.75 576.71 178.29 588.35C154.03 599.01 136.73 612.08 125.54 628.37C112.52 647.2 107.4 667.37 110.17 688.32C112.44 705.9 120.61 723.5 133.67 739.28C147.02 755.47 164.84 768.94 183.74 777.12C204.16 786.06 223.16 787.53 237.26 781.34C244.4 778.2 250.01 773.32 253.92 766.8C264.88 748.76 273.29 733.59 280.07 721.44C296.02 693.12 302.78 681.41 313.76 676.58C317.34 675.01 321.82 674.02 327.44 673.4C328.7 673.29 331.78 674.56 335.08 678.35C339.78 683.82 341.96 691.27 340.61 696.89C339.04 703.26 337.19 709.98 335.23 716.95C328.37 741.6 320.64 769.47 322.27 796.28C323.34 813.62 327.42 828.86 334.44 841.62C341.14 853.86 350.29 863.49 361.67 870.5C384.54 884.48 414.34 885.68 441.44 873.77C460.39 865.44 476.27 851.13 486.14 833.57C497.29 813.71 500.69 790.14 496.05 765.42C492.18 744.95 488.21 728.23 484.55 713.45C476.3 679.28 471.73 660.43 480.56 639.28C489.8 617.31 513.64 590.55 568.55 540.51L575.63 534.01L546.29 467.28L533.07 490.13C528.36 498.32 522.59 503.81 515.72 506.83C508.21 510.13 494.81 512.2 473.66 503.59C453.95 495.54 438.11 482.62 432.23 477.45C426.18 472.14 419.22 463.51 411.12 453.53C394.5 432.87 373.69 407.17 344.78 391.37C328.56 382.55 311.16 377.75 293.23 377.22C272.98 376.62 251.21 381.28 228.69 391.18C212.58 398.27 199.5 408.28 190.63 420.15Z" />
	<path id="Layer" class="shp1" d="M494 543.2C441.8 543.2 400.8 521 363.8 501C335.1 485.4 307.9 470.7 279.3 468.5L280.4 455.1C311.8 457.6 340.2 473 370.2 489.2C416.3 514.2 464 540 531.3 525.8L534.1 538.9C520 541.9 506.6 543.2 494 543.2L494 543.2Z" />
	<path id="Layer" class="shp1" d="M278.8 617.8L270.8 607C271.7 606.4 292.8 590.9 335.8 575.7C375.1 561.7 441 545.2 532.1 546L532 559.4C443.3 558.6 379.2 574.6 341 588.1C299.6 602.7 279 617.7 278.8 617.8L278.8 617.8Z" />
	<path id="Layer" class="shp0" d="M685 314.6C685 314.6 655.2 284.8 655.2 270.9C655.1 247.5 686.2 236 707.1 247.7C726.6 258.7 747.2 318.7 747.2 318.7L685 314.6Z" />
	<path id="Layer" fill-rule="evenodd" class="shp1" d="M755.8 325.3L682.3 320.5L680.7 318.9C675.4 313.6 649.1 286.6 649.1 271C649.1 259.6 655.1 249.5 665.8 243.3C679 235.5 696.8 235.2 710 242.6C730.9 254.4 750.7 310.5 752.8 316.9L755.8 325.3ZM687.7 308.8L738.4 312.1C736.2 306.3 732.9 298.2 729 289.8C716.5 262.9 708.1 255.2 704.2 253C694.6 247.6 681.7 247.9 672 253.6C668 256 661.2 261.4 661.3 271C661.2 278.3 676.4 297.2 687.7 308.8Z" />
	<path id="Layer" class="shp0" d="M770.3 710.2C770.3 710.2 730.2 776.7 703.2 780.5C679.4 783.8 665.8 770.7 673.4 753.5L688.3 719.3L772.7 710.2" />
	<path id="Layer" fill-rule="evenodd" class="shp1" d="M675.98 784.59C669.74 778.82 667.42 769.99 669.73 760.32L679.06 720.61L763.84 695.51L765.97 702.74L768.81 703.85C765.85 711.61 739.48 779.43 711.67 788.56C709 789.56 706.38 790.24 703.82 790.7C692.41 792.78 682.58 790.71 675.98 784.59ZM681.43 763.17C680.5 767 680.23 772.23 684.13 775.79C688.78 780.13 697.72 780.63 707.88 777.26C722.46 772.47 741.39 738.02 752.79 711.34L689.15 730.25L681.43 763.17Z" />
	<path id="Layer" class="shp2" d="M693.2 722.3C628.9 722.3 575.2 701.8 538.1 663C501.6 624.9 483 570.7 485.7 510.4C489 435.3 509.9 382.8 549.6 349.8C583 322 630 308.5 693.2 308.5C760.7 308.5 817 327.4 856 363.1C893.9 397.8 913.9 446.4 913.9 503.8C913.9 561.9 893.5 615.9 856.4 655.7C815.9 699.3 759.5 722.3 693.2 722.3L693.2 722.3Z" />
	<path id="Layer" fill-rule="evenodd" class="shp1" d="M693.2 302.5C762.3 302.5 820 321.9 860 358.7C879.5 376.6 894.5 398.2 904.7 422.9C914.8 447.5 919.9 474.7 919.9 503.9C919.9 533.2 914.9 561.5 904.9 588.1C894.8 615.2 879.9 639.4 860.8 659.9C840.8 681.4 816.7 698.2 789.3 709.8C760.3 722.1 727.9 728.3 693.2 728.3C627.1 728.3 572 707.1 533.7 667.1C496.1 627.8 476.9 572 479.6 510.1C481.4 471.3 488 437.6 499.3 410C510.2 383.6 525.8 361.7 545.7 345.2C580.2 316.5 628.5 302.5 693.2 302.5ZM491.7 510.7C486.8 622.2 556.1 716.3 693.2 716.3C830.3 716.3 907.9 614.8 907.9 503.9C907.9 393 830.3 314.6 693.2 314.6C582.2 314.6 498.6 355.6 491.7 510.7Z" />
	<path id="Layer" class="shp3" d="M808.6 396.4C808.6 413.75 815.49 430.38 827.76 442.64C840.02 454.91 856.65 461.8 874 461.8C891.35 461.8 907.98 454.91 920.24 442.64C932.51 430.38 939.4 413.75 939.4 396.4C939.4 379.05 932.51 362.42 920.24 350.16C907.98 337.89 891.35 331 874 331C856.65 331 840.02 337.89 827.76 350.16C815.49 362.42 808.6 379.05 808.6 396.4L808.6 396.4Z" />
	<path id="Layer" fill-rule="evenodd" class="shp1" d="M802.6 396.4C802.6 357 834.6 325 874 325C913.4 325 945.4 357 945.4 396.4C945.4 435.8 913.4 467.8 874 467.8C834.6 467.8 802.6 435.8 802.6 396.4ZM874 337C841.2 337 814.6 363.6 814.6 396.4C814.6 429.2 841.2 455.8 874 455.8C906.8 455.8 933.4 429.2 933.4 396.4C933.4 363.6 906.8 337 874 337Z" />
	<path id="Layer" class="shp1" d="M867.1 381.9C867.1 386.51 868.93 390.94 872.2 394.2C875.46 397.47 879.89 399.3 884.5 399.3C889.11 399.3 893.54 397.47 896.8 394.2C900.07 390.94 901.9 386.51 901.9 381.9C901.9 377.29 900.07 372.86 896.8 369.6C893.54 366.33 889.11 364.5 884.5 364.5C879.89 364.5 875.46 366.33 872.2 369.6C868.93 372.86 867.1 377.29 867.1 381.9L867.1 381.9Z" />
	<path id="Layer" class="shp3" d="M834.3 580.8C834.3 598.15 841.19 614.78 853.46 627.04C865.72 639.31 882.35 646.2 899.7 646.2C917.05 646.2 933.68 639.31 945.94 627.04C958.21 614.78 965.1 598.15 965.1 580.8C965.1 563.45 958.21 546.82 945.94 534.56C933.68 522.29 917.05 515.4 899.7 515.4C882.35 515.4 865.72 522.29 853.46 534.56C841.19 546.82 834.3 563.45 834.3 580.8L834.3 580.8Z" />
	<path id="Layer" fill-rule="evenodd" class="shp1" d="M899.7 652.2C860.3 652.2 828.3 620.2 828.3 580.8C828.3 541.4 860.3 509.4 899.7 509.4C939.1 509.4 971.1 541.4 971.1 580.8C971.1 620.2 939.1 652.2 899.7 652.2ZM899.7 521.4C866.9 521.4 840.3 548 840.3 580.8C840.3 613.6 866.9 640.2 899.7 640.2C932.5 640.2 959.1 613.6 959.1 580.8C959.1 548 932.5 521.4 899.7 521.4Z" />
	<path id="Layer" class="shp1" d="M895.9 576.3C895.9 580.91 897.73 585.34 901 588.6C904.26 591.87 908.69 593.7 913.3 593.7C917.91 593.7 922.34 591.87 925.6 588.6C928.87 585.34 930.7 580.91 930.7 576.3C930.7 571.69 928.87 567.26 925.6 564C922.34 560.73 917.91 558.9 913.3 558.9C908.69 558.9 904.26 560.73 901 564C897.73 567.26 895.9 571.69 895.9 576.3L895.9 576.3Z" />
	<path id="Layer" class="shp4" d="M886.4 485.4C886.4 493.36 889.36 500.99 894.63 506.61C899.9 512.24 907.05 515.4 914.5 515.4C921.95 515.4 929.1 512.24 934.37 506.61C939.64 500.99 942.6 493.36 942.6 485.4C942.6 477.44 939.64 469.81 934.37 464.19C929.1 458.56 921.95 455.4 914.5 455.4C907.05 455.4 899.9 458.56 894.63 464.19C889.36 469.81 886.4 477.44 886.4 485.4Z" />
	<path id="Layer" fill-rule="evenodd" class="shp1" d="M914.5 521.4C895.7 521.4 880.4 505.3 880.4 485.4C880.4 465.5 895.7 449.4 914.5 449.4C933.3 449.4 948.6 465.5 948.6 485.4C948.6 505.3 933.3 521.4 914.5 521.4ZM914.5 461.4C902.3 461.4 892.4 472.2 892.4 485.4C892.4 498.6 902.3 509.4 914.5 509.4C926.7 509.4 936.6 498.6 936.6 485.4C936.6 472.2 926.7 461.4 914.5 461.4Z" />
	<path id="Layer" class="shp0" d="M911.9 485.4C911.9 487.65 912.47 489.82 913.48 491.41C914.49 493 915.87 493.9 917.3 493.9C918.73 493.9 920.11 493 921.12 491.41C922.13 489.82 922.7 487.65 922.7 485.4C922.7 483.15 922.13 480.98 921.12 479.39C920.11 477.8 918.73 476.9 917.3 476.9C915.87 476.9 914.49 477.8 913.48 479.39C912.47 480.98 911.9 483.15 911.9 485.4L911.9 485.4Z" />
	<path id="Layer" class="shp1" d="M917.3 499.9C910.9 499.9 905.9 493.5 905.9 485.4C905.9 477.3 910.9 470.9 917.3 470.9C923.7 470.9 928.7 477.3 928.7 485.4C928.7 493.5 923.7 499.9 917.3 499.9Z" />
</svg>