<?xml version="1.0" standalone="no"?><!DOCTYPE svg PUBLIC "-//W3C//DTD SVG 1.1//EN" "http://www.w3.org/Graphics/SVG/1.1/DTD/svg11.dtd"><svg t="1634561382539" class="icon" viewBox="0 0 1024 1024" version="1.1" xmlns="http://www.w3.org/2000/svg" p-id="1845" width="64" height="64" xmlns:xlink="http://www.w3.org/1999/xlink"><defs><style type="text/css"></style></defs><path d="M277.5 782.3c-27.4 0-52.1-12.1-66.2-32.3-18.4-26.4-13.1-56.8-5.4-77.6 8.9-24.2 26.9-46.1 42.7-65.5 4.7-5.7 9.1-11.1 13.2-16.4 4.9-6.4 6.3-16.3 3.5-25.3-1.9-6.1-5.4-10.7-9.3-12-6-2-11.2-2.9-15.9-2.9-14.7 0-27.5 9.7-52.8 28.9-11.1 8.4-24.9 18.9-42 30.9-5.1 3.6-10.9 5.4-17.3 5.4-27.1 0-59.8-34.5-71.5-75.4-11.7-41.1 0.8-76.5 34.3-97.3 15.7-9.7 35.6-14.4 60.9-14.4 28.2 0 57 5.9 80.2 10.7 4.5 0.9 8.8 1.8 12.7 2.6 3 0.6 6 0.9 8.7 0.9 10.8 0 18.4-4.5 21-12.4s-0.1-21.2-15.9-32.6c-57.1-41.1-53.2-76.8-48.9-90.2 7.8-24.1 33.7-39.1 67.5-39.1 101.3 0 121.8 75.5 135.3 125.5 3.4 12.7 6.4 23.6 10.1 31.4 11.2 23.9 38.6 64.3 70.7 64.3 8.9 0 17.9-3.2 26.6-9.6l10.7-7.8v55.1l-4.6 1.5C454.3 552.7 421 568 403 585.2c-18.2 17.3-21.7 37.2-28.2 73.2-2.6 14.9-5.7 31.7-10.3 51.8-5.3 22.9-17.1 41.8-34 54.5-14.9 11.3-33.8 17.6-53 17.6z" fill="#FF8931" p-id="1846"></path><path d="M277 274.9c121 0 120.2 112.1 139.3 153.1 12.6 26.9 41.7 68.2 76.8 68.2 9.8 0 20.1-3.2 30.5-10.9v37.1c-168 56.4-138 67.9-165.6 186.3-10.7 46.1-46.4 66.8-80.5 66.8-45.8 0-88.8-37.3-65.3-100.9 11-29.9 36.6-56.3 54.9-80.1 12.1-15.7 5.5-42.9-9-47.7-6.7-2.2-12.5-3.3-18-3.3-24.3 0-41.9 21.3-98.7 61-4.1 2.9-8.6 4.2-13.5 4.2-44.4 0-110.6-112.6-33.6-160.2 16.2-10 36.4-13.4 57.3-13.4 33.1 0 68 8.5 91.7 13.1 3.6 0.7 6.9 1 10 1 32.4 0 39.7-35 9-57.1-80.2-57.7-50.4-117.2 14.7-117.2m0-13.4c-17.6 0-33.6 3.9-46.5 11.2-13.6 7.8-23.1 19-27.4 32.5-4.9 15.2-2.9 32 5.7 48.8 8.8 17 24.1 33.5 45.6 49 12.1 8.7 15.5 18.9 13.5 25.1-1.6 4.9-6.9 7.8-14.6 7.8-2.3 0-4.8-0.3-7.5-0.8-3.9-0.8-8.2-1.6-12.7-2.6-23.5-4.8-52.7-10.8-81.6-10.8-26.5 0-47.6 5-64.4 15.4-19.5 12-32.3 28.4-38.2 48.7-5 17-4.6 36.4 1 56.1 5.7 20.2 16.6 39.7 30.6 54.8 15.1 16.4 31.9 25.4 47.3 25.4 7.8 0 14.9-2.2 21.1-6.6 17.3-12.1 31.1-22.6 42.2-31C217.1 565 228 557 240 557c3.9 0 8.4 0.9 13.8 2.6 1.2 0.4 3.5 2.8 5 7.6 2.1 6.9 1.1 14.6-2.4 19.2-4 5.2-8.4 10.6-13 16.2-16.2 19.8-34.5 42.2-43.8 67.4-6 16.3-8.4 31.9-7.1 46.4 1.2 13.9 5.7 26.4 13.3 37.4 15.3 22 42.1 35.1 71.7 35.1 20.7 0 41-6.7 57.1-18.8 18.2-13.7 30.8-33.9 36.5-58.4 4.7-20.3 7.8-37.2 10.4-52.2 6.2-34.6 9.6-53.7 26.2-69.5 17.3-16.4 49.9-31.3 120.3-55l9.1-3.1V459l-21.3 15.6c-7.6 5.6-15.1 8.3-22.6 8.3-8.2 0-21.3-3.5-37.2-19.9-14.8-15.3-24.1-33.5-27.4-40.6-3.4-7.3-6.3-18-9.7-30.4-6.9-25.6-15.6-57.5-35.7-83.6-11.3-14.6-25.3-26-41.5-33.7-18.3-8.7-40.1-13.2-64.7-13.2z" fill="" p-id="1847"></path><path d="M485 513.2c-52.2 0-93.2-22.2-130.2-42.2-28.7-15.6-55.9-30.3-84.5-32.5l1.1-13.4c31.4 2.5 59.8 17.9 89.8 34.1 46.1 25 93.8 50.8 161.1 36.6l2.8 13.1c-14.1 3-27.5 4.3-40.1 4.3z" fill="" p-id="1848"></path><path d="M266.8 575.8l-8-10.8c0.9-0.6 22-16.1 65-31.3 39.3-14 105.2-30.5 196.3-29.7l-0.1 13.4c-88.7-0.8-152.8 15.2-191 28.7-41.4 14.6-62 29.6-62.2 29.7z" fill="" p-id="1849"></path><path d="M685 314.6s-29.8-29.8-29.8-43.7c-0.1-23.4 31-34.9 51.9-23.2 19.5 11 40.1 71 40.1 71l-62.2-4.1z" fill="#FF8931" p-id="1850"></path><path d="M755.8 325.3l-73.5-4.8-1.6-1.6c-5.3-5.3-31.6-32.3-31.6-47.9 0-11.4 6-21.5 16.7-27.7 13.2-7.8 31-8.1 44.2-0.7 20.9 11.8 40.7 67.9 42.8 74.3l3 8.4z m-68.1-16.5l50.7 3.3c-2.2-5.8-5.5-13.9-9.4-22.3-12.5-26.9-20.9-34.6-24.8-36.8-9.6-5.4-22.5-5.1-32.2 0.6-4 2.4-10.8 7.8-10.7 17.4-0.1 7.3 15.1 26.2 26.4 37.8z" fill="" p-id="1851"></path><path d="M770.3 710.2s-40.1 66.5-67.1 70.3c-23.8 3.3-37.4-9.8-29.8-27l14.9-34.2 84.4-9.1" fill="#FF8931" p-id="1852"></path><path d="M696 787c-11.6 0-20.9-3.8-26.3-11-5.1-6.8-5.8-15.9-1.8-25l16.3-37.4 87.9-9.5 0.8 7.5 2.6 1.6c-4.3 7.1-42.4 69.1-71.4 73.1-2.8 0.5-5.5 0.7-8.1 0.7z m-3.6-62.1l-13.5 31c-1.6 3.6-2.8 8.7 0.4 12.9 3.8 5.1 12.5 7.2 23.1 5.7 15.2-2.1 40-32.6 56-56.8l-66 7.2z" fill="" p-id="1853"></path><path d="M693.2 722.3c-64.3 0-118-20.5-155.1-59.3-36.5-38.1-55.1-92.3-52.4-152.6 3.3-75.1 24.2-127.6 63.9-160.6C583 322 630 308.5 693.2 308.5c67.5 0 123.8 18.9 162.8 54.6 37.9 34.7 57.9 83.3 57.9 140.7 0 58.1-20.4 112.1-57.5 151.9-40.5 43.6-96.9 66.6-163.2 66.6z" fill="#FFC239" p-id="1854"></path><path d="M693.2 314.6c137.1 0 214.7 78.4 214.7 189.3s-77.6 212.4-214.7 212.4-206.4-94.1-201.5-205.6c6.9-155.1 90.5-196.1 201.5-196.1m0-12.1c-64.7 0-113 14-147.5 42.7-19.9 16.5-35.5 38.4-46.4 64.8-11.3 27.6-17.9 61.3-19.7 100.1-2.7 61.9 16.5 117.7 54.1 157 38.3 40 93.4 61.2 159.5 61.2 34.7 0 67.1-6.2 96.1-18.5 27.4-11.6 51.5-28.4 71.5-49.9 19.1-20.5 34-44.7 44.1-71.8 10-26.6 15-54.9 15-84.2 0-29.2-5.1-56.4-15.2-81-10.2-24.7-25.2-46.3-44.7-64.2-40-36.8-97.7-56.2-166.8-56.2z" fill="" p-id="1855"></path><path d="M874 396.4m-65.4 0a65.4 65.4 0 1 0 130.8 0 65.4 65.4 0 1 0-130.8 0Z" fill="#FFFFFF" p-id="1856"></path><path d="M874 467.8c-39.4 0-71.4-32-71.4-71.4s32-71.4 71.4-71.4 71.4 32 71.4 71.4-32 71.4-71.4 71.4z m0-130.8c-32.8 0-59.4 26.6-59.4 59.4s26.6 59.4 59.4 59.4 59.4-26.6 59.4-59.4S906.8 337 874 337z" fill="" p-id="1857"></path><path d="M890.5 372.9m-17.4 0a17.4 17.4 0 1 0 34.8 0 17.4 17.4 0 1 0-34.8 0Z" fill="" p-id="1858"></path><path d="M899.7 580.8m-65.4 0a65.4 65.4 0 1 0 130.8 0 65.4 65.4 0 1 0-130.8 0Z" fill="#FFFFFF" p-id="1859"></path><path d="M899.7 652.2c-39.4 0-71.4-32-71.4-71.4s32-71.4 71.4-71.4 71.4 32 71.4 71.4-32 71.4-71.4 71.4z m0-130.8c-32.8 0-59.4 26.6-59.4 59.4s26.6 59.4 59.4 59.4 59.4-26.6 59.4-59.4-26.6-59.4-59.4-59.4z" fill="" p-id="1860"></path><path d="M925.3 573.3m-17.4 0a17.4 17.4 0 1 0 34.8 0 17.4 17.4 0 1 0-34.8 0Z" fill="" p-id="1861"></path><path d="M886.4 485.4a30 28.1 90 1 0 56.2 0 30 28.1 90 1 0-56.2 0Z" fill="#FFBC34" p-id="1862"></path><path d="M914.5 521.4c-18.8 0-34.1-16.1-34.1-36s15.3-36 34.1-36 34.1 16.1 34.1 36-15.3 36-34.1 36z m0-60c-12.2 0-22.1 10.8-22.1 24s9.9 24 22.1 24 22.1-10.8 22.1-24-9.9-24-22.1-24z" fill="" p-id="1863"></path><path d="M911.9 485.4a8.5 5.4 90 1 0 10.8 0 8.5 5.4 90 1 0-10.8 0Z" fill="#FF8931" p-id="1864"></path><path d="M917.3 499.9c-6.4 0-11.4-6.4-11.4-14.5s5-14.5 11.4-14.5 11.4 6.4 11.4 14.5-5 14.5-11.4 14.5z" fill="" p-id="1865"></path></svg>