<svg version="1.2" baseProfile="tiny-ps" xmlns="http://www.w3.org/2000/svg" viewBox="0 0 1024 1024" width="64" height="64">
	<title>fish-svg</title>
	<style>
		tspan { white-space:pre }
		.shp0 { fill: #ff8931 } 
		.shp1 { fill: #000000 } 
		.shp2 { fill: #ffc239 } 
		.shp3 { fill: #ffffff } 
		.shp4 { fill: #ffbc34 } 
	</style>
	<path id="Layer" class="shp0" d="M212.43 739.28C185.93 732.3 165.13 714.3 156.65 691.17C145.59 660.95 158.47 632.91 171.22 614.76C185.99 593.63 208.98 577.04 229.21 562.31C235.2 558 240.83 553.9 246.15 549.82C252.52 544.88 256.4 535.67 255.99 526.25C255.7 519.87 253.49 514.53 250.05 512.27C244.76 508.81 239.96 506.61 235.42 505.42C221.2 501.67 206.35 507.78 176.99 519.9C164.12 525.19 148.1 531.82 128.5 539.07C122.65 541.25 116.59 541.51 110.4 539.88C84.19 532.97 61.37 491.27 60.49 448.74C59.65 406.01 80.77 374.97 118.46 363.4C136.12 358.02 156.56 358.55 181.02 365C208.29 372.2 234.63 385.24 255.84 395.8C259.97 397.82 263.89 399.79 267.46 401.55C270.21 402.9 273.03 403.95 275.64 404.64C286.09 407.4 294.58 404.98 299.11 398.01C303.64 391.03 304.42 377.48 292.05 362.43C247.32 308.13 260.19 274.6 267.77 262.74C281.45 241.43 310.32 233.53 343 242.15C440.96 267.98 441.53 346.21 441.83 398C441.88 411.14 442 422.45 443.59 430.93C448.33 456.9 464.52 502.95 495.56 511.14C504.16 513.41 513.68 512.61 523.73 508.64L536.06 503.82L522.01 557.1L517.18 557.38C441.93 562.35 405.83 568.66 384.03 580.7C362.02 592.79 353.57 611.14 338.1 644.29C331.79 658.03 324.51 673.49 314.93 691.75C303.97 712.54 287.74 727.81 268.16 735.78C250.87 742.91 230.99 744.18 212.43 739.28L212.43 739.28Z" />
	<path id="Layer" fill-rule="evenodd" class="shp1" d="M332.18 251.55C449.8 279.97 422.69 388.75 431.63 433.09C437.56 462.19 456.15 509.17 490.27 517.42C499.79 519.72 510.55 519.03 522.47 513.99L513.76 550.05C337.21 565.41 363.67 583.64 309.04 692.24C287.81 734.54 248.25 746.28 215.1 738.27C170.58 727.51 137.54 681.16 175.32 624.85C193.04 598.37 224.12 578.73 247.5 559.89C262.95 547.47 262.92 519.48 249.95 511.41C243.96 507.7 238.58 505.27 233.23 503.97C209.61 498.27 187.5 514.84 122.97 540.09C118.3 541.94 113.62 542.15 108.86 541C65.7 530.57 27.8 405.57 113.82 377.39C131.92 371.47 152.35 372.91 172.67 377.82C204.84 385.59 236.77 402.05 258.73 412.09C262.06 413.62 265.2 414.68 268.21 415.41C299.7 423.02 315.02 390.71 290.37 362.02C225.96 287.1 268.91 236.26 332.18 251.55ZM287.5 238.49C272.45 242.88 260.59 251.54 253.24 263.65C244.9 277.27 242.9 294.07 247.31 312.42C251.88 331.01 262.87 350.65 280.13 370.76C289.85 382.06 290.76 392.77 287.36 398.33C284.65 402.72 278.82 404.29 271.33 402.48C269.1 401.94 266.74 401.06 264.23 399.94C260.63 398.25 256.64 396.46 252.5 394.43C230.78 384.25 203.81 371.56 175.72 364.77C149.96 358.55 128.27 358.45 109.5 364.62C87.73 371.7 71.44 384.64 60.93 402.98C52.08 418.33 47.91 437.28 48.73 457.75C49.53 478.72 55.54 500.24 65.6 518.2C76.43 537.69 90.64 550.38 105.61 554C113.2 555.83 120.61 555.36 127.67 552.54C147.33 544.84 163.21 537.88 175.97 532.32C205.83 519.47 218.3 514.25 229.97 517.07C233.76 517.99 237.92 519.92 242.77 522.84C243.84 523.51 245.51 526.38 245.84 531.4C246.26 538.6 243.48 545.85 239 549.5C233.89 553.62 228.35 557.83 222.56 562.2C202.16 577.64 179.11 595.11 164.16 617.42C154.5 631.86 148.5 646.46 146.36 660.86C144.26 674.65 145.7 687.86 150.5 700.34C160.21 725.31 183.18 744.34 211.95 751.29C232.07 756.16 253.38 754.41 271.87 746.43C292.78 737.39 309.77 720.71 321.06 698.24C330.4 679.61 337.38 663.91 343.43 649.94C357.59 617.76 365.38 600 385.22 588.54C405.89 576.66 441.08 569.83 515.08 563.33L524.65 562.45L541.77 491.59L517.4 501.75C508.7 505.41 500.78 506.27 493.49 504.51C485.52 502.59 473.6 496.11 462 476.43C451.21 458.08 446.44 438.21 444.9 430.53C443.31 422.64 443.01 411.56 442.61 398.7C441.92 372.2 440.95 339.15 427.55 309.06C419.99 292.21 409.06 277.84 395.12 266.55C379.38 253.8 359.24 244.31 335.33 238.53C318.22 234.39 301.76 234.43 287.5 238.49Z" />
	<path id="Layer" class="shp1" d="M485 513.2C432.8 513.2 391.8 491 354.8 471C326.1 455.4 298.9 440.7 270.3 438.5L271.4 425.1C302.8 427.6 331.2 443 361.2 459.2C407.3 484.2 455 510 522.3 495.8L525.1 508.9C511 511.9 497.6 513.2 485 513.2L485 513.2Z" />
	<path id="Layer" class="shp1" d="M266.8 575.8L258.8 565C259.7 564.4 280.8 548.9 323.8 533.7C363.1 519.7 429 503.2 520.1 504L520 517.4C431.3 516.6 367.2 532.6 329 546.1C287.6 560.7 267 575.7 266.8 575.8L266.8 575.8Z" />
	<path id="Layer" class="shp0" d="M685 314.6C685 314.6 655.2 284.8 655.2 270.9C655.1 247.5 686.2 236 707.1 247.7C726.6 258.7 747.2 318.7 747.2 318.7L685 314.6Z" />
	<path id="Layer" fill-rule="evenodd" class="shp1" d="M755.8 325.3L682.3 320.5L680.7 318.9C675.4 313.6 649.1 286.6 649.1 271C649.1 259.6 655.1 249.5 665.8 243.3C679 235.5 696.8 235.2 710 242.6C730.9 254.4 750.7 310.5 752.8 316.9L755.8 325.3ZM687.7 308.8L738.4 312.1C736.2 306.3 732.9 298.2 729 289.8C716.5 262.9 708.1 255.2 704.2 253C694.6 247.6 681.7 247.9 672 253.6C668 256 661.2 261.4 661.3 271C661.2 278.3 676.4 297.2 687.7 308.8Z" />
	<path id="Layer" class="shp0" d="M770.3 710.2C770.3 710.2 730.2 776.7 703.2 780.5C679.4 783.8 665.8 770.7 673.4 753.5L688.3 719.3L772.7 710.2" />
	<path id="Layer" fill-rule="evenodd" class="shp1" d="M669.7 776C664.6 769.2 663.9 760.1 667.9 751L684.2 713.6L772.1 704.1L772.9 711.6L775.5 713.2C771.2 720.3 733.1 782.3 704.1 786.3C701.3 786.8 698.6 787 696 787C684.4 787 675.1 783.2 669.7 776ZM678.9 755.9C677.3 759.5 676.1 764.6 679.3 768.8C683.1 773.9 691.8 776 702.4 774.5C717.6 772.4 742.4 741.9 758.4 717.7L692.4 724.9L678.9 755.9Z" />
	<path id="Layer" class="shp2" d="M693.2 722.3C628.9 722.3 575.2 701.8 538.1 663C501.6 624.9 483 570.7 485.7 510.4C489 435.3 509.9 382.8 549.6 349.8C583 322 630 308.5 693.2 308.5C760.7 308.5 817 327.4 856 363.1C893.9 397.8 913.9 446.4 913.9 503.8C913.9 561.9 893.5 615.9 856.4 655.7C815.9 699.3 759.5 722.3 693.2 722.3L693.2 722.3Z" />
	<path id="Layer" fill-rule="evenodd" class="shp1" d="M693.2 302.5C762.3 302.5 820 321.9 860 358.7C879.5 376.6 894.5 398.2 904.7 422.9C914.8 447.5 919.9 474.7 919.9 503.9C919.9 533.2 914.9 561.5 904.9 588.1C894.8 615.2 879.9 639.4 860.8 659.9C840.8 681.4 816.7 698.2 789.3 709.8C760.3 722.1 727.9 728.3 693.2 728.3C627.1 728.3 572 707.1 533.7 667.1C496.1 627.8 476.9 572 479.6 510.1C481.4 471.3 488 437.6 499.3 410C510.2 383.6 525.8 361.7 545.7 345.2C580.2 316.5 628.5 302.5 693.2 302.5ZM491.7 510.7C486.8 622.2 556.1 716.3 693.2 716.3C830.3 716.3 907.9 614.8 907.9 503.9C907.9 393 830.3 314.6 693.2 314.6C582.2 314.6 498.6 355.6 491.7 510.7Z" />
	<path id="Layer" class="shp3" d="M808.6 396.4C808.6 413.75 815.49 430.38 827.76 442.64C840.02 454.91 856.65 461.8 874 461.8C891.35 461.8 907.98 454.91 920.24 442.64C932.51 430.38 939.4 413.75 939.4 396.4C939.4 379.05 932.51 362.42 920.24 350.16C907.98 337.89 891.35 331 874 331C856.65 331 840.02 337.89 827.76 350.16C815.49 362.42 808.6 379.05 808.6 396.4L808.6 396.4Z" />
	<path id="Layer" fill-rule="evenodd" class="shp1" d="M802.6 396.4C802.6 357 834.6 325 874 325C913.4 325 945.4 357 945.4 396.4C945.4 435.8 913.4 467.8 874 467.8C834.6 467.8 802.6 435.8 802.6 396.4ZM874 337C841.2 337 814.6 363.6 814.6 396.4C814.6 429.2 841.2 455.8 874 455.8C906.8 455.8 933.4 429.2 933.4 396.4C933.4 363.6 906.8 337 874 337Z" />
	<path id="Layer" class="shp1" d="M873.1 372.9C873.1 377.51 874.93 381.94 878.2 385.2C881.46 388.47 885.89 390.3 890.5 390.3C895.11 390.3 899.54 388.47 902.8 385.2C906.07 381.94 907.9 377.51 907.9 372.9C907.9 368.29 906.07 363.86 902.8 360.6C899.54 357.33 895.11 355.5 890.5 355.5C885.89 355.5 881.46 357.33 878.2 360.6C874.93 363.86 873.1 368.29 873.1 372.9L873.1 372.9Z" />
	<path id="Layer" class="shp3" d="M834.3 580.8C834.3 598.15 841.19 614.78 853.46 627.04C865.72 639.31 882.35 646.2 899.7 646.2C917.05 646.2 933.68 639.31 945.94 627.04C958.21 614.78 965.1 598.15 965.1 580.8C965.1 563.45 958.21 546.82 945.94 534.56C933.68 522.29 917.05 515.4 899.7 515.4C882.35 515.4 865.72 522.29 853.46 534.56C841.19 546.82 834.3 563.45 834.3 580.8L834.3 580.8Z" />
	<path id="Layer" fill-rule="evenodd" class="shp1" d="M899.7 652.2C860.3 652.2 828.3 620.2 828.3 580.8C828.3 541.4 860.3 509.4 899.7 509.4C939.1 509.4 971.1 541.4 971.1 580.8C971.1 620.2 939.1 652.2 899.7 652.2ZM899.7 521.4C866.9 521.4 840.3 548 840.3 580.8C840.3 613.6 866.9 640.2 899.7 640.2C932.5 640.2 959.1 613.6 959.1 580.8C959.1 548 932.5 521.4 899.7 521.4Z" />
	<path id="Layer" class="shp1" d="M907.9 573.3C907.9 577.91 909.73 582.34 913 585.6C916.26 588.87 920.69 590.7 925.3 590.7C929.91 590.7 934.34 588.87 937.6 585.6C940.87 582.34 942.7 577.91 942.7 573.3C942.7 568.69 940.87 564.26 937.6 561C934.34 557.73 929.91 555.9 925.3 555.9C920.69 555.9 916.26 557.73 913 561C909.73 564.26 907.9 568.69 907.9 573.3L907.9 573.3Z" />
	<path id="Layer" class="shp4" d="M886.4 485.4C886.4 493.36 889.36 500.99 894.63 506.61C899.9 512.24 907.05 515.4 914.5 515.4C921.95 515.4 929.1 512.24 934.37 506.61C939.64 500.99 942.6 493.36 942.6 485.4C942.6 477.44 939.64 469.81 934.37 464.19C929.1 458.56 921.95 455.4 914.5 455.4C907.05 455.4 899.9 458.56 894.63 464.19C889.36 469.81 886.4 477.44 886.4 485.4Z" />
	<path id="Layer" fill-rule="evenodd" class="shp1" d="M914.5 521.4C895.7 521.4 880.4 505.3 880.4 485.4C880.4 465.5 895.7 449.4 914.5 449.4C933.3 449.4 948.6 465.5 948.6 485.4C948.6 505.3 933.3 521.4 914.5 521.4ZM914.5 461.4C902.3 461.4 892.4 472.2 892.4 485.4C892.4 498.6 902.3 509.4 914.5 509.4C926.7 509.4 936.6 498.6 936.6 485.4C936.6 472.2 926.7 461.4 914.5 461.4Z" />
	<path id="Layer" class="shp0" d="M911.9 485.4C911.9 487.65 912.47 489.82 913.48 491.41C914.49 493 915.87 493.9 917.3 493.9C918.73 493.9 920.11 493 921.12 491.41C922.13 489.82 922.7 487.65 922.7 485.4C922.7 483.15 922.13 480.98 921.12 479.39C920.11 477.8 918.73 476.9 917.3 476.9C915.87 476.9 914.49 477.8 913.48 479.39C912.47 480.98 911.9 483.15 911.9 485.4L911.9 485.4Z" />
	<path id="Layer" class="shp1" d="M917.3 499.9C910.9 499.9 905.9 493.5 905.9 485.4C905.9 477.3 910.9 470.9 917.3 470.9C923.7 470.9 928.7 477.3 928.7 485.4C928.7 493.5 923.7 499.9 917.3 499.9Z" />
</svg>