<svg version="1.2" baseProfile="tiny-ps" xmlns="http://www.w3.org/2000/svg" viewBox="0 0 1024 1024" width="64" height="64">
	<title>fish-svg</title>
	<style>
		tspan { white-space:pre }
		.shp0 { fill: #ff8931 } 
		.shp1 { fill: #000000 } 
		.shp2 { fill: #ffc239 } 
		.shp3 { fill: #ffffff } 
		.shp4 { fill: #ffbc34 } 
	</style>
	<path id="Layer" class="shp0" d="M188.5 686.36C163.2 675.84 145.03 655.19 139.76 631.13C132.9 599.69 149.45 573.65 164.54 557.4C182.05 538.46 207.07 525.14 229.11 513.29C235.63 509.83 241.77 506.53 247.59 503.21C254.57 499.18 259.66 490.58 260.53 481.19C261.11 474.83 259.65 469.24 256.54 466.54C251.77 462.39 247.31 459.57 242.97 457.76C229.4 452.12 213.86 456.17 183.13 464.19C169.65 467.69 152.88 472.09 132.48 476.61C126.39 477.98 120.35 477.42 114.44 474.96C89.41 464.57 72.45 420.16 77.34 377.9C82.3 335.46 107.43 307.56 146.34 301.21C164.56 298.27 184.74 301.57 208.11 311.27C234.15 322.09 258.48 338.59 278.06 351.93C281.87 354.48 285.5 356.96 288.79 359.2C291.33 360.9 293.99 362.33 296.48 363.37C306.46 367.51 315.2 366.27 320.63 359.97C326.07 353.68 328.67 340.36 318.46 323.77C281.5 263.91 298.79 232.43 307.91 221.71C324.36 202.45 354.03 198.53 385.24 211.5C478.79 250.36 468.75 327.95 462.04 379.31C460.31 392.34 458.89 403.55 459.32 412.18C460.49 438.55 470.29 486.37 499.94 498.68C508.16 502.1 517.7 502.59 528.19 500.02L541.06 496.92L519.92 547.81L515.1 547.43C439.86 542.16 403.24 543.51 380.02 552.49C356.57 561.48 345.7 578.52 325.89 609.27C317.77 622.03 308.46 636.36 296.5 653.15C282.82 672.27 264.68 685.19 244.2 690.44C226.1 695.16 206.23 693.72 188.5 686.36L188.5 686.36Z" />
	<path id="Layer" fill-rule="evenodd" class="shp1" d="M382.13 220.82C494.17 266.5 451.11 370 453.31 415.18C454.82 444.85 466.18 494.08 498.68 507.33C507.75 511.03 518.5 511.95 531.04 508.75L517.03 543.11C340.17 531.9 363.61 553.88 293.34 653.09C266.03 691.74 225.16 697.43 193.58 684.55C151.17 667.26 125.44 616.49 171.21 566.47C192.69 542.93 226.36 528.15 252.29 513.02C269.42 503.05 273.58 475.38 261.97 465.46C256.59 460.89 251.64 457.68 246.55 455.6C224.04 446.43 199.7 459.51 132.12 474.82C127.23 475.96 122.57 475.47 118.03 473.62C76.92 456.85 58.13 327.59 147.41 312.59C166.18 309.44 186.17 313.92 205.52 321.81C236.17 334.31 265.28 355.36 285.49 368.57C288.56 370.57 291.5 372.1 294.37 373.27C324.37 385.5 344.35 355.85 324.27 323.79C271.79 240.08 321.85 196.24 382.13 220.82ZM339.9 201.22C324.36 203.31 311.34 210.1 302.26 220.97C291.98 233.2 287.49 249.51 289.11 268.31C290.84 287.38 298.78 308.43 312.83 330.9C320.75 343.53 320.05 354.26 315.86 359.24C312.53 363.18 306.52 363.86 299.39 360.95C297.26 360.08 295.06 358.86 292.75 357.38C289.44 355.17 285.76 352.8 281.97 350.18C262.02 336.86 237.25 320.28 210.49 309.37C185.95 299.36 164.53 296.03 145.04 299.31C122.46 303.06 104.41 313.41 91.28 329.98C80.23 343.84 73.28 361.95 71.03 382.31C68.68 403.17 71.41 425.34 78.67 444.61C86.46 465.49 98.62 480.17 112.88 485.99C120.1 488.93 127.51 489.57 134.91 487.84C155.5 483.17 172.24 478.66 185.69 475.07C217.13 466.83 230.24 463.54 241.36 468.07C244.97 469.54 248.79 472.07 253.15 475.69C254.11 476.51 255.34 479.6 254.91 484.61C254.25 491.79 250.42 498.55 245.44 501.48C239.77 504.79 233.66 508.13 227.29 511.58C204.81 523.79 179.41 537.63 161.28 557.45C149.57 570.28 141.46 583.82 137.19 597.73C133.05 611.06 132.5 624.33 135.38 637.39C141.24 663.54 161.11 685.79 188.52 696.96C207.69 704.78 229.02 706.24 248.49 701.11C270.52 695.3 289.81 681.35 304.34 660.82C316.36 643.79 325.61 629.31 333.68 616.41C352.49 586.71 362.85 570.31 384.18 561.94C406.39 553.29 442.21 551.8 516.34 556.43L525.94 557L553.47 489.5L527.85 495.9C518.7 498.21 510.74 497.88 503.79 495.05C496.2 491.96 485.39 483.77 476.86 462.58C468.93 442.82 467.19 422.46 466.82 414.64C466.42 406.6 467.78 395.59 469.31 382.83C472.59 356.52 476.58 323.69 467.82 291.94C462.87 274.15 454.21 258.31 442.11 245.06C428.45 230.1 409.97 217.7 387.19 208.41C370.89 201.76 354.6 199.33 339.9 201.22Z" />
	<path id="Layer" class="shp1" d="M485 513.2C432.8 513.2 391.8 491 354.8 471C326.1 455.4 298.9 440.7 270.3 438.5L271.4 425.1C302.8 427.6 331.2 443 361.2 459.2C407.3 484.2 455 510 522.3 495.8L525.1 508.9C511 511.9 497.6 513.2 485 513.2L485 513.2Z" />
	<path id="Layer" class="shp1" d="M266.8 575.8L258.8 565C259.7 564.4 280.8 548.9 323.8 533.7C363.1 519.7 429 503.2 520.1 504L520 517.4C431.3 516.6 367.2 532.6 329 546.1C287.6 560.7 267 575.7 266.8 575.8L266.8 575.8Z" />
	<path id="Layer" class="shp0" d="M685 314.6C685 314.6 655.2 284.8 655.2 270.9C655.1 247.5 686.2 236 707.1 247.7C726.6 258.7 747.2 318.7 747.2 318.7L685 314.6Z" />
	<path id="Layer" fill-rule="evenodd" class="shp1" d="M755.8 325.3L682.3 320.5L680.7 318.9C675.4 313.6 649.1 286.6 649.1 271C649.1 259.6 655.1 249.5 665.8 243.3C679 235.5 696.8 235.2 710 242.6C730.9 254.4 750.7 310.5 752.8 316.9L755.8 325.3ZM687.7 308.8L738.4 312.1C736.2 306.3 732.9 298.2 729 289.8C716.5 262.9 708.1 255.2 704.2 253C694.6 247.6 681.7 247.9 672 253.6C668 256 661.2 261.4 661.3 271C661.2 278.3 676.4 297.2 687.7 308.8Z" />
	<path id="Layer" class="shp0" d="M770.3 710.2C770.3 710.2 730.2 776.7 703.2 780.5C679.4 783.8 665.8 770.7 673.4 753.5L688.3 719.3L772.7 710.2" />
	<path id="Layer" fill-rule="evenodd" class="shp1" d="M669.7 776C664.6 769.2 663.9 760.1 667.9 751L684.2 713.6L772.1 704.1L772.9 711.6L775.5 713.2C771.2 720.3 733.1 782.3 704.1 786.3C701.3 786.8 698.6 787 696 787C684.4 787 675.1 783.2 669.7 776ZM678.9 755.9C677.3 759.5 676.1 764.6 679.3 768.8C683.1 773.9 691.8 776 702.4 774.5C717.6 772.4 742.4 741.9 758.4 717.7L692.4 724.9L678.9 755.9Z" />
	<path id="Layer" class="shp2" d="M693.2 722.3C628.9 722.3 575.2 701.8 538.1 663C501.6 624.9 483 570.7 485.7 510.4C489 435.3 509.9 382.8 549.6 349.8C583 322 630 308.5 693.2 308.5C760.7 308.5 817 327.4 856 363.1C893.9 397.8 913.9 446.4 913.9 503.8C913.9 561.9 893.5 615.9 856.4 655.7C815.9 699.3 759.5 722.3 693.2 722.3L693.2 722.3Z" />
	<path id="Layer" fill-rule="evenodd" class="shp1" d="M693.2 302.5C762.3 302.5 820 321.9 860 358.7C879.5 376.6 894.5 398.2 904.7 422.9C914.8 447.5 919.9 474.7 919.9 503.9C919.9 533.2 914.9 561.5 904.9 588.1C894.8 615.2 879.9 639.4 860.8 659.9C840.8 681.4 816.7 698.2 789.3 709.8C760.3 722.1 727.9 728.3 693.2 728.3C627.1 728.3 572 707.1 533.7 667.1C496.1 627.8 476.9 572 479.6 510.1C481.4 471.3 488 437.6 499.3 410C510.2 383.6 525.8 361.7 545.7 345.2C580.2 316.5 628.5 302.5 693.2 302.5ZM491.7 510.7C486.8 622.2 556.1 716.3 693.2 716.3C830.3 716.3 907.9 614.8 907.9 503.9C907.9 393 830.3 314.6 693.2 314.6C582.2 314.6 498.6 355.6 491.7 510.7Z" />
	<path id="Layer" class="shp3" d="M808.6 396.4C808.6 413.75 815.49 430.38 827.76 442.64C840.02 454.91 856.65 461.8 874 461.8C891.35 461.8 907.98 454.91 920.24 442.64C932.51 430.38 939.4 413.75 939.4 396.4C939.4 379.05 932.51 362.42 920.24 350.16C907.98 337.89 891.35 331 874 331C856.65 331 840.02 337.89 827.76 350.16C815.49 362.42 808.6 379.05 808.6 396.4L808.6 396.4Z" />
	<path id="Layer" fill-rule="evenodd" class="shp1" d="M802.6 396.4C802.6 357 834.6 325 874 325C913.4 325 945.4 357 945.4 396.4C945.4 435.8 913.4 467.8 874 467.8C834.6 467.8 802.6 435.8 802.6 396.4ZM874 337C841.2 337 814.6 363.6 814.6 396.4C814.6 429.2 841.2 455.8 874 455.8C906.8 455.8 933.4 429.2 933.4 396.4C933.4 363.6 906.8 337 874 337Z" />
	<path id="Layer" class="shp1" d="M873.1 372.9C873.1 377.51 874.93 381.94 878.2 385.2C881.46 388.47 885.89 390.3 890.5 390.3C895.11 390.3 899.54 388.47 902.8 385.2C906.07 381.94 907.9 377.51 907.9 372.9C907.9 368.29 906.07 363.86 902.8 360.6C899.54 357.33 895.11 355.5 890.5 355.5C885.89 355.5 881.46 357.33 878.2 360.6C874.93 363.86 873.1 368.29 873.1 372.9L873.1 372.9Z" />
	<path id="Layer" class="shp3" d="M834.3 580.8C834.3 598.15 841.19 614.78 853.46 627.04C865.72 639.31 882.35 646.2 899.7 646.2C917.05 646.2 933.68 639.31 945.94 627.04C958.21 614.78 965.1 598.15 965.1 580.8C965.1 563.45 958.21 546.82 945.94 534.56C933.68 522.29 917.05 515.4 899.7 515.4C882.35 515.4 865.72 522.29 853.46 534.56C841.19 546.82 834.3 563.45 834.3 580.8L834.3 580.8Z" />
	<path id="Layer" fill-rule="evenodd" class="shp1" d="M899.7 652.2C860.3 652.2 828.3 620.2 828.3 580.8C828.3 541.4 860.3 509.4 899.7 509.4C939.1 509.4 971.1 541.4 971.1 580.8C971.1 620.2 939.1 652.2 899.7 652.2ZM899.7 521.4C866.9 521.4 840.3 548 840.3 580.8C840.3 613.6 866.9 640.2 899.7 640.2C932.5 640.2 959.1 613.6 959.1 580.8C959.1 548 932.5 521.4 899.7 521.4Z" />
	<path id="Layer" class="shp1" d="M907.9 573.3C907.9 577.91 909.73 582.34 913 585.6C916.26 588.87 920.69 590.7 925.3 590.7C929.91 590.7 934.34 588.87 937.6 585.6C940.87 582.34 942.7 577.91 942.7 573.3C942.7 568.69 940.87 564.26 937.6 561C934.34 557.73 929.91 555.9 925.3 555.9C920.69 555.9 916.26 557.73 913 561C909.73 564.26 907.9 568.69 907.9 573.3L907.9 573.3Z" />
	<path id="Layer" class="shp4" d="M886.4 485.4C886.4 493.36 889.36 500.99 894.63 506.61C899.9 512.24 907.05 515.4 914.5 515.4C921.95 515.4 929.1 512.24 934.37 506.61C939.64 500.99 942.6 493.36 942.6 485.4C942.6 477.44 939.64 469.81 934.37 464.19C929.1 458.56 921.95 455.4 914.5 455.4C907.05 455.4 899.9 458.56 894.63 464.19C889.36 469.81 886.4 477.44 886.4 485.4Z" />
	<path id="Layer" fill-rule="evenodd" class="shp1" d="M914.5 521.4C895.7 521.4 880.4 505.3 880.4 485.4C880.4 465.5 895.7 449.4 914.5 449.4C933.3 449.4 948.6 465.5 948.6 485.4C948.6 505.3 933.3 521.4 914.5 521.4ZM914.5 461.4C902.3 461.4 892.4 472.2 892.4 485.4C892.4 498.6 902.3 509.4 914.5 509.4C926.7 509.4 936.6 498.6 936.6 485.4C936.6 472.2 926.7 461.4 914.5 461.4Z" />
	<path id="Layer" class="shp0" d="M911.9 485.4C911.9 487.65 912.47 489.82 913.48 491.41C914.49 493 915.87 493.9 917.3 493.9C918.73 493.9 920.11 493 921.12 491.41C922.13 489.82 922.7 487.65 922.7 485.4C922.7 483.15 922.13 480.98 921.12 479.39C920.11 477.8 918.73 476.9 917.3 476.9C915.87 476.9 914.49 477.8 913.48 479.39C912.47 480.98 911.9 483.15 911.9 485.4L911.9 485.4Z" />
	<path id="Layer" class="shp1" d="M917.3 499.9C910.9 499.9 905.9 493.5 905.9 485.4C905.9 477.3 910.9 470.9 917.3 470.9C923.7 470.9 928.7 477.3 928.7 485.4C928.7 493.5 923.7 499.9 917.3 499.9Z" />
</svg>