<svg version="1.2" baseProfile="tiny-ps" xmlns="http://www.w3.org/2000/svg" viewBox="0 0 1024 1024" width="64" height="64">
	<title>fish-svg</title>
	<style>
		tspan { white-space:pre }
		.shp0 { fill: #ff8931 } 
		.shp1 { fill: #000000 } 
		.shp2 { fill: #ffc239 } 
		.shp3 { fill: #ffffff } 
		.shp4 { fill: #ffbc34 } 
	</style>
	<path id="Layer" class="shp0" d="M371.8 848.39C345.43 855.83 318.37 850.9 299.32 835.28C274.44 814.87 271.29 784.17 273.05 762.06C275.05 736.36 286.42 710.39 296.36 687.43C299.34 680.67 302.11 674.28 304.61 668.06C307.59 660.57 306.25 650.66 301.11 642.76C297.63 637.41 293.01 633.93 288.9 633.74C282.58 633.44 277.34 633.99 272.81 635.27C258.66 639.26 248.98 652.07 229.84 677.42C221.44 688.52 211.01 702.37 197.81 718.56C193.88 723.41 188.79 726.72 182.63 728.45C156.55 735.81 115.71 711.49 93.34 675.3C70.92 638.92 73.34 601.46 99.93 572.34C112.41 558.75 130.28 548.82 154.63 541.95C181.77 534.29 211.09 532.15 234.73 530.47C239.3 530.11 243.68 529.81 247.65 529.52C250.71 529.29 253.67 528.76 256.27 528.03C266.67 525.1 272.76 518.7 273.12 510.39C273.47 502.08 267.26 490.02 248.96 483.33C182.85 459.28 176.91 423.86 177.41 409.8C178.37 384.49 199.22 363.02 231.75 353.84C329.25 326.33 369.48 393.43 396.05 437.89C402.77 449.19 408.62 458.86 414.29 465.37C431.56 485.33 468.9 516.77 499.8 508.05C508.36 505.64 516.16 500.11 522.79 491.59L530.97 481.18L545.93 534.21L541.91 536.9C479.62 579.41 451.72 603.18 439.07 624.62C426.25 646.21 428.28 666.32 431.8 702.73C433.35 717.78 434.93 734.79 435.96 755.38C437.07 778.86 430.85 800.25 418.03 817.06C406.76 831.99 390.28 843.18 371.8 848.39L371.8 848.39Z" />
	<path id="Layer" fill-rule="evenodd" class="shp1" d="M239.07 368.33C355.86 336.7 384.39 445.11 413.55 479.69C432.74 502.37 471.62 534.62 505.5 525.45C514.96 522.89 524.07 517.11 532.09 506.96L541.79 542.77C394.37 641.12 426.34 644.38 430.64 765.87C432.37 813.17 403.32 842.48 370.4 851.39C326.2 863.36 274.94 838.6 281 771.07C283.8 739.33 301.61 707.16 313.05 679.4C320.63 661.09 307.15 636.56 291.9 635.72C284.86 635.34 278.97 635.8 273.66 637.23C250.21 643.59 238.79 668.75 194.34 721.91C191.14 725.78 187.13 728.21 182.4 729.5C139.55 741.1 46.22 649.72 108.1 583.65C121.12 569.76 139.73 561.2 159.9 555.74C191.85 547.08 227.76 546.17 251.84 544.41C255.5 544.15 258.76 543.57 261.75 542.76C293.03 534.29 290.93 498.6 255.52 485.3C163.02 450.56 176.23 385.34 239.07 368.33ZM193.61 378.36C182.52 389.44 176.28 402.74 175.66 416.89C174.9 432.84 181.23 448.54 193.92 462.5C206.85 476.61 225.94 488.54 250.74 497.88C264.69 503.12 270.64 512.07 270.33 518.58C270.07 523.73 265.71 527.91 258.28 529.93C256.06 530.53 253.57 530.89 250.83 531.11C246.86 531.36 242.5 531.71 237.89 531.92C213.95 533.43 184.2 535.27 156.31 542.83C130.73 549.75 111.67 560.1 98.17 574.53C82.48 591.21 74.42 610.38 74.03 631.52C73.64 649.23 79.1 667.85 89.66 685.41C100.44 703.41 116.06 719.39 133.52 730.3C152.38 742.19 170.95 746.48 185.81 742.46C193.34 740.42 199.62 736.44 204.45 730.57C217.99 714.37 228.56 700.63 237.08 689.62C257.08 664 265.51 653.43 277.09 650.29C280.86 649.27 285.44 648.96 291.09 649.19C292.36 649.27 295.2 650.98 297.91 655.22C301.74 661.33 302.78 669.03 300.61 674.38C298.11 680.45 295.27 686.81 292.29 693.42C281.83 716.76 270.02 743.17 267.64 769.92C266.1 787.22 267.87 802.91 272.91 816.57C277.7 829.67 285.31 840.56 295.52 849.19C316.04 866.43 345.33 872.06 373.91 864.33C393.89 858.92 411.73 847.14 424.11 831.26C438.09 813.27 444.97 790.48 444.07 765.35C443.3 744.52 441.88 727.4 440.47 712.24C437.41 677.22 435.7 657.9 447.59 638.31C460 617.96 487.57 595.05 549.33 553.78L557.3 548.41L538.25 478.04L521.77 498.67C515.9 506.06 509.36 510.62 502.12 512.58C494.21 514.73 480.65 514.77 461.01 503.1C442.73 492.2 429 477.06 423.95 471.07C418.76 464.92 413.17 455.35 406.65 444.27C393.29 421.36 376.56 392.84 350.33 372.9C335.61 361.77 319.12 354.42 301.47 351.22C281.53 347.61 259.31 348.96 235.57 355.39C218.58 359.99 204.16 367.94 193.61 378.36Z" />
	<path id="Layer" class="shp1" d="M494 543.2C441.8 543.2 400.8 521 363.8 501C335.1 485.4 307.9 470.7 279.3 468.5L280.4 455.1C311.8 457.6 340.2 473 370.2 489.2C416.3 514.2 464 540 531.3 525.8L534.1 538.9C520 541.9 506.6 543.2 494 543.2L494 543.2Z" />
	<path id="Layer" class="shp1" d="M278.8 617.8L270.8 607C271.7 606.4 292.8 590.9 335.8 575.7C375.1 561.7 441 545.2 532.1 546L532 559.4C443.3 558.6 379.2 574.6 341 588.1C299.6 602.7 279 617.7 278.8 617.8L278.8 617.8Z" />
	<path id="Layer" class="shp0" d="M685 314.6C685 314.6 655.2 284.8 655.2 270.9C655.1 247.5 686.2 236 707.1 247.7C726.6 258.7 747.2 318.7 747.2 318.7L685 314.6Z" />
	<path id="Layer" fill-rule="evenodd" class="shp1" d="M755.8 325.3L682.3 320.5L680.7 318.9C675.4 313.6 649.1 286.6 649.1 271C649.1 259.6 655.1 249.5 665.8 243.3C679 235.5 696.8 235.2 710 242.6C730.9 254.4 750.7 310.5 752.8 316.9L755.8 325.3ZM687.7 308.8L738.4 312.1C736.2 306.3 732.9 298.2 729 289.8C716.5 262.9 708.1 255.2 704.2 253C694.6 247.6 681.7 247.9 672 253.6C668 256 661.2 261.4 661.3 271C661.2 278.3 676.4 297.2 687.7 308.8Z" />
	<path id="Layer" class="shp0" d="M770.3 710.2C770.3 710.2 730.2 776.7 703.2 780.5C679.4 783.8 665.8 770.7 673.4 753.5L688.3 719.3L772.7 710.2" />
	<path id="Layer" fill-rule="evenodd" class="shp1" d="M675.98 784.59C669.74 778.82 667.42 769.99 669.73 760.32L679.06 720.61L763.84 695.51L765.97 702.74L768.81 703.85C765.85 711.61 739.48 779.43 711.67 788.56C709 789.56 706.38 790.24 703.82 790.7C692.41 792.78 682.58 790.71 675.98 784.59ZM681.43 763.17C680.5 767 680.23 772.23 684.13 775.79C688.78 780.13 697.72 780.63 707.88 777.26C722.46 772.47 741.39 738.02 752.79 711.34L689.15 730.25L681.43 763.17Z" />
	<path id="Layer" class="shp2" d="M693.2 722.3C628.9 722.3 575.2 701.8 538.1 663C501.6 624.9 483 570.7 485.7 510.4C489 435.3 509.9 382.8 549.6 349.8C583 322 630 308.5 693.2 308.5C760.7 308.5 817 327.4 856 363.1C893.9 397.8 913.9 446.4 913.9 503.8C913.9 561.9 893.5 615.9 856.4 655.7C815.9 699.3 759.5 722.3 693.2 722.3L693.2 722.3Z" />
	<path id="Layer" fill-rule="evenodd" class="shp1" d="M693.2 302.5C762.3 302.5 820 321.9 860 358.7C879.5 376.6 894.5 398.2 904.7 422.9C914.8 447.5 919.9 474.7 919.9 503.9C919.9 533.2 914.9 561.5 904.9 588.1C894.8 615.2 879.9 639.4 860.8 659.9C840.8 681.4 816.7 698.2 789.3 709.8C760.3 722.1 727.9 728.3 693.2 728.3C627.1 728.3 572 707.1 533.7 667.1C496.1 627.8 476.9 572 479.6 510.1C481.4 471.3 488 437.6 499.3 410C510.2 383.6 525.8 361.7 545.7 345.2C580.2 316.5 628.5 302.5 693.2 302.5ZM491.7 510.7C486.8 622.2 556.1 716.3 693.2 716.3C830.3 716.3 907.9 614.8 907.9 503.9C907.9 393 830.3 314.6 693.2 314.6C582.2 314.6 498.6 355.6 491.7 510.7Z" />
	<path id="Layer" class="shp3" d="M808.6 396.4C808.6 413.75 815.49 430.38 827.76 442.64C840.02 454.91 856.65 461.8 874 461.8C891.35 461.8 907.98 454.91 920.24 442.64C932.51 430.38 939.4 413.75 939.4 396.4C939.4 379.05 932.51 362.42 920.24 350.16C907.98 337.89 891.35 331 874 331C856.65 331 840.02 337.89 827.76 350.16C815.49 362.42 808.6 379.05 808.6 396.4L808.6 396.4Z" />
	<path id="Layer" fill-rule="evenodd" class="shp1" d="M802.6 396.4C802.6 357 834.6 325 874 325C913.4 325 945.4 357 945.4 396.4C945.4 435.8 913.4 467.8 874 467.8C834.6 467.8 802.6 435.8 802.6 396.4ZM874 337C841.2 337 814.6 363.6 814.6 396.4C814.6 429.2 841.2 455.8 874 455.8C906.8 455.8 933.4 429.2 933.4 396.4C933.4 363.6 906.8 337 874 337Z" />
	<path id="Layer" class="shp1" d="M873.1 372.9C873.1 377.51 874.93 381.94 878.2 385.2C881.46 388.47 885.89 390.3 890.5 390.3C895.11 390.3 899.54 388.47 902.8 385.2C906.07 381.94 907.9 377.51 907.9 372.9C907.9 368.29 906.07 363.86 902.8 360.6C899.54 357.33 895.11 355.5 890.5 355.5C885.89 355.5 881.46 357.33 878.2 360.6C874.93 363.86 873.1 368.29 873.1 372.9L873.1 372.9Z" />
	<path id="Layer" class="shp3" d="M834.3 580.8C834.3 598.15 841.19 614.78 853.46 627.04C865.72 639.31 882.35 646.2 899.7 646.2C917.05 646.2 933.68 639.31 945.94 627.04C958.21 614.78 965.1 598.15 965.1 580.8C965.1 563.45 958.21 546.82 945.94 534.56C933.68 522.29 917.05 515.4 899.7 515.4C882.35 515.4 865.72 522.29 853.46 534.56C841.19 546.82 834.3 563.45 834.3 580.8L834.3 580.8Z" />
	<path id="Layer" fill-rule="evenodd" class="shp1" d="M899.7 652.2C860.3 652.2 828.3 620.2 828.3 580.8C828.3 541.4 860.3 509.4 899.7 509.4C939.1 509.4 971.1 541.4 971.1 580.8C971.1 620.2 939.1 652.2 899.7 652.2ZM899.7 521.4C866.9 521.4 840.3 548 840.3 580.8C840.3 613.6 866.9 640.2 899.7 640.2C932.5 640.2 959.1 613.6 959.1 580.8C959.1 548 932.5 521.4 899.7 521.4Z" />
	<path id="Layer" class="shp1" d="M907.9 573.3C907.9 577.91 909.73 582.34 913 585.6C916.26 588.87 920.69 590.7 925.3 590.7C929.91 590.7 934.34 588.87 937.6 585.6C940.87 582.34 942.7 577.91 942.7 573.3C942.7 568.69 940.87 564.26 937.6 561C934.34 557.73 929.91 555.9 925.3 555.9C920.69 555.9 916.26 557.73 913 561C909.73 564.26 907.9 568.69 907.9 573.3L907.9 573.3Z" />
	<path id="Layer" class="shp4" d="M886.4 485.4C886.4 493.36 889.36 500.99 894.63 506.61C899.9 512.24 907.05 515.4 914.5 515.4C921.95 515.4 929.1 512.24 934.37 506.61C939.64 500.99 942.6 493.36 942.6 485.4C942.6 477.44 939.64 469.81 934.37 464.19C929.1 458.56 921.95 455.4 914.5 455.4C907.05 455.4 899.9 458.56 894.63 464.19C889.36 469.81 886.4 477.44 886.4 485.4Z" />
	<path id="Layer" fill-rule="evenodd" class="shp1" d="M914.5 521.4C895.7 521.4 880.4 505.3 880.4 485.4C880.4 465.5 895.7 449.4 914.5 449.4C933.3 449.4 948.6 465.5 948.6 485.4C948.6 505.3 933.3 521.4 914.5 521.4ZM914.5 461.4C902.3 461.4 892.4 472.2 892.4 485.4C892.4 498.6 902.3 509.4 914.5 509.4C926.7 509.4 936.6 498.6 936.6 485.4C936.6 472.2 926.7 461.4 914.5 461.4Z" />
	<path id="Layer" class="shp0" d="M911.9 485.4C911.9 487.65 912.47 489.82 913.48 491.41C914.49 493 915.87 493.9 917.3 493.9C918.73 493.9 920.11 493 921.12 491.41C922.13 489.82 922.7 487.65 922.7 485.4C922.7 483.15 922.13 480.98 921.12 479.39C920.11 477.8 918.73 476.9 917.3 476.9C915.87 476.9 914.49 477.8 913.48 479.39C912.47 480.98 911.9 483.15 911.9 485.4L911.9 485.4Z" />
	<path id="Layer" class="shp1" d="M917.3 499.9C910.9 499.9 905.9 493.5 905.9 485.4C905.9 477.3 910.9 470.9 917.3 470.9C923.7 470.9 928.7 477.3 928.7 485.4C928.7 493.5 923.7 499.9 917.3 499.9Z" />
</svg>