<?xml version="1.0" standalone="no"?><!DOCTYPE svg PUBLIC "-//W3C//DTD SVG 1.1//EN" "http://www.w3.org/Graphics/SVG/1.1/DTD/svg11.dtd"><svg t="1686404977114" class="icon" viewBox="0 0 1024 1024" version="1.1" xmlns="http://www.w3.org/2000/svg" p-id="4105" xmlns:xlink="http://www.w3.org/1999/xlink" width="64" height="64"><path d="M1014.06208 132.352a129.792 129.792 0 0 1 7.68 25.6A156.672 156.672 0 0 1 1024.55808 185.856a83.456 83.456 0 0 1-5.888 30.208A86.784 86.784 0 0 1 998.95808 245.248c-9.216 9.472-17.664 17.408-25.6 25.6l-19.2 18.432c-6.4 6.4-12.032 11.776-17.664 16.384l-217.6-217.856 33.024-30.72c12.8-12.032 23.552-21.504 32-28.672A108.288 108.288 0 0 1 819.75808 9.472a102.4 102.4 0 0 1 34.048-4.608 128 128 0 0 1 32.768 5.12 175.36 175.36 0 0 1 27.392 10.496 221.184 221.184 0 0 1 54.016 44.8 257.536 257.536 0 0 1 46.08 67.072zM106.79808 700.672c4.608-4.608 15.616-15.616 32.512-33.28l64.256-64.512 84.992-84.992 94.208-94.464 250.368-250.368 217.856 218.88-250.368 250.368-93.184 94.464C476.46208 768 448.55808 794.88 423.47008 819.2l-61.696 62.464c-16.128 16.128-25.6 25.6-28.928 27.904-7.936 6.912-16.896 14.336-26.88 22.016a132.608 132.608 0 0 1-31.488 18.688 484.352 484.352 0 0 1-47.616 19.712c-20.992 7.936-43.008 15.36-65.792 22.784s-44.8 13.824-65.28 19.2-35.84 8.96-46.08 10.496c-20.992 2.304-34.816 0-41.984-9.216a55.296 55.296 0 0 1-5.632-43.264 386.304 386.304 0 0 1 11.008-47.104c5.888-20.48 12.032-41.984 18.688-64s12.8-42.496 19.2-61.184a250.368 250.368 0 0 1 15.104-38.4 190.976 190.976 0 0 1 15.616-29.696 195.84 195.84 0 0 1 25.6-29.696zM495.15008 921.6h104.192v102.4h-104.192z m211.712 0h103.936v102.4h-103.936z m212.48 0H1024.55808v102.4h-105.216z m0 0" p-id="4106" fill="#1296db"></path></svg>